<?xml version="1.0" encoding="UTF-8" standalone="no"?>
<svg
   xmlns:dc="http://purl.org/dc/elements/1.1/"
   xmlns:cc="http://creativecommons.org/ns#"
   xmlns:rdf="http://www.w3.org/1999/02/22-rdf-syntax-ns#"
   xmlns:svg="http://www.w3.org/2000/svg"
   xmlns="http://www.w3.org/2000/svg"
   xmlns:xlink="http://www.w3.org/1999/xlink"
   xmlns:sodipodi="http://sodipodi.sourceforge.net/DTD/sodipodi-0.dtd"
   xmlns:inkscape="http://www.inkscape.org/namespaces/inkscape"
   width="793.70081"
   height="1122.5197"
   viewBox="0 0 210 297"
   version="1.1"
   id="svg8"
   inkscape:version="1.0.1 (3bc2e813f5, 2020-09-07)"
   sodipodi:docname="lembra saude.svg">
  <defs
     id="defs2">
    <linearGradient
       inkscape:collect="always"
       id="linearGradient959">
      <stop
         style="stop-color:#005500;stop-opacity:1"
         offset="0"
         id="stop955" />
      <stop
         style="stop-color:#d7f4d7;stop-opacity:1"
         offset="1"
         id="stop957" />
    </linearGradient>
    <linearGradient
       inkscape:collect="always"
       xlink:href="#linearGradient959"
       id="linearGradient961"
       x1="24.343256"
       y1="143.86719"
       x2="126.73383"
       y2="147.43906"
       gradientUnits="userSpaceOnUse"
       gradientTransform="translate(62.113438,3.7417734)" />
    <clipPath
       clipPathUnits="userSpaceOnUse"
       id="clipPath1022">
      <use
         x="0"
         y="0"
         xlink:href="#g1018"
         id="use1024" />
    </clipPath>
  </defs>
  <sodipodi:namedview
     id="base"
     pagecolor="#ffffff"
     bordercolor="#666666"
     borderopacity="1.0"
     inkscape:pageopacity="0.0"
     inkscape:pageshadow="2"
     inkscape:zoom="0.70710678"
     inkscape:cx="558.83121"
     inkscape:cy="705.99508"
     inkscape:document-units="px"
     inkscape:current-layer="layer1"
     inkscape:document-rotation="0"
     showgrid="false"
     showborder="false"
     units="px"
     inkscape:window-width="1920"
     inkscape:window-height="1001"
     inkscape:window-x="-9"
     inkscape:window-y="-9"
     inkscape:window-maximized="1" />
  <metadata
     id="metadata5">
    <rdf:RDF>
      <cc:Work
         rdf:about="">
        <dc:format>image/svg+xml</dc:format>
        <dc:type
           rdf:resource="http://purl.org/dc/dcmitype/StillImage" />
        <dc:title></dc:title>
      </cc:Work>
    </rdf:RDF>
  </metadata>
  <g
     inkscape:label="Layer 1"
     inkscape:groupmode="layer"
     id="layer1">
    <text
       xml:space="preserve"
       style="font-size:4.5861px;line-height:1.25;font-family:sans-serif;stroke-width:0.264583"
       x="62.970833"
       y="106.3625"
       id="text835"><tspan
         sodipodi:role="line"
         id="tspan833"
         x="62.970833"
         y="106.3625"
         style="stroke-width:0.264583"></tspan></text>
    <g
       id="g1020"
       clip-path="url(#clipPath1022)"
       transform="translate(3.0471452)">
      <g
         inkscape:label="Clip"
         id="g1018">
        <path
           id="path924"
           style="fill:url(#linearGradient961);fill-opacity:1;stroke-width:13.9685;stroke-linecap:round;stroke-linejoin:round;paint-order:stroke markers fill;stop-color:#000000"
           d="M 179.18496,148.3919 A 46.368231,40.415105 0.96750786 0 1 132.14091,188.01829 46.368231,40.415105 0.96750786 0 1 86.461716,146.826 46.368231,40.415105 0.96750786 0 1 133.50576,107.19961 46.368231,40.415105 0.96750786 0 1 179.18496,148.3919 Z" />
        <g
           aria-label="S"
           transform="matrix(1.6146023,0,0,1.4870804,8.6399463,-36.499231)"
           id="text839-7"
           style="font-size:81.3113px;line-height:1.25;font-family:sans-serif;fill:#005522;fill-opacity:1;stroke-width:0.304917">
          <path
             d="m 104.37755,96.937405 h 1.38959 l -3.95172,18.624645 h -1.3896 q -1.074033,-6.72664 -3.45001,-10.49823 -1.741765,-2.644 -4.814862,-4.627 -3.025144,-2.021885 -7.113498,-3.149474 -4.040403,-1.16647 -8.447412,-1.16647 -3.295331,0 -6.065761,0.894294 -2.77043,0.894295 -4.928304,2.644001 -1.534487,1.244239 -2.618838,2.799519 -1.084352,1.55531 -1.3896,2.99395 -0.577496,2.72176 1.145704,4.70477 0.786321,0.97206 2.422901,1.86635 1.676282,0.89429 4.393087,1.7497 2.756505,0.85542 7.733273,2.09966 1.338552,0.42771 1.838189,0.50546 l 1.846437,0.46659 2.931817,0.77765 q 7.440405,1.983 10.731609,3.49941 3.291204,1.51642 5.304185,4.00489 1.597393,1.82747 2.149623,4.27705 0.59192,2.4496 -0.0103,5.28801 -0.59399,2.79953 -2.42702,5.63795 -1.824787,2.79953 -4.54159,4.93805 -3.565003,2.95506 -8.206106,4.4326 -4.601398,1.47752 -10.120085,1.47752 -3.85117,0 -7.100611,-0.77764 -3.217986,-0.73877 -7.672431,-2.76065 -2.912225,-1.24424 -4.488992,-1.67194 -1.568518,-0.46659 -3.037521,-0.46659 -2.818898,0 -5.117535,1.47753 -2.250686,1.43865 -3.455177,4.12153 h -1.389597 l 5.329474,-25.11801 h 1.389597 q -0.585235,6.68777 2.944699,12.1313 2.142401,3.18836 5.923962,5.949 3.82951,2.72177 8.311799,4.23818 4.482288,1.51641 8.809891,1.51641 3.851171,0 7.291392,-1.24423 3.479925,-1.24424 5.736798,-3.46053 2.256873,-2.2163 2.85087,-5.01583 0.626996,-2.95506 -1.291625,-5.32688 -0.888928,-1.04983 -2.485806,-1.94412 -1.557174,-0.89429 -4.178072,-1.82747 -2.581196,-0.93318 -7.192389,-2.2163 l -3.747529,-1.04983 q -8.770705,-2.44958 -12.055207,-3.81047 -3.704733,-1.43864 -5.702247,-2.87729 -1.957808,-1.43865 -3.155077,-3.65495 -1.801577,-3.11058 -1.009581,-6.84329 0.956995,-4.51035 4.455484,-8.08754 3.506737,-3.616049 8.858881,-5.637932 5.352143,-2.021883 11.347263,-2.021883 9.052235,0 17.731672,4.938061 3.059692,1.671944 4.290478,1.671944 3.096818,0 5.395458,-4.471475 z"
             style="font-style:normal;font-variant:normal;font-weight:normal;font-stretch:normal;font-family:'Engravers MT';-inkscape-font-specification:'Engravers MT';fill:#005522;fill-opacity:1;stroke-width:0.30175"
             id="path943-7" />
        </g>
        <g
           aria-label="S"
           transform="matrix(1.6146023,0,0,1.4870804,8.6399463,-34.91173)"
           id="text839"
           style="font-size:81.3113px;line-height:1.25;font-family:sans-serif;fill:#d7f4d7;fill-opacity:1;stroke-width:0.304917">
          <path
             d="m 104.37755,96.937405 h 1.38959 l -3.95172,18.624645 h -1.3896 q -1.074033,-6.72664 -3.45001,-10.49823 -1.741765,-2.644 -4.814862,-4.627 -3.025144,-2.021885 -7.113498,-3.149474 -4.040403,-1.16647 -8.447412,-1.16647 -3.295331,0 -6.065761,0.894294 -2.77043,0.894295 -4.928304,2.644001 -1.534487,1.244239 -2.618838,2.799519 -1.084352,1.55531 -1.3896,2.99395 -0.577496,2.72176 1.145704,4.70477 0.786321,0.97206 2.422901,1.86635 1.676282,0.89429 4.393087,1.7497 2.756505,0.85542 7.733273,2.09966 1.338552,0.42771 1.838189,0.50546 l 1.846437,0.46659 2.931817,0.77765 q 7.440405,1.983 10.731609,3.49941 3.291204,1.51642 5.304185,4.00489 1.597393,1.82747 2.149623,4.27705 0.59192,2.4496 -0.0103,5.28801 -0.59399,2.79953 -2.42702,5.63795 -1.824787,2.79953 -4.54159,4.93805 -3.565003,2.95506 -8.206106,4.4326 -4.601398,1.47752 -10.120085,1.47752 -3.85117,0 -7.100611,-0.77764 -3.217986,-0.73877 -7.672431,-2.76065 -2.912225,-1.24424 -4.488992,-1.67194 -1.568518,-0.46659 -3.037521,-0.46659 -2.818898,0 -5.117535,1.47753 -2.250686,1.43865 -3.455177,4.12153 h -1.389597 l 5.329474,-25.11801 h 1.389597 q -0.585235,6.68777 2.944699,12.1313 2.142401,3.18836 5.923962,5.949 3.82951,2.72177 8.311799,4.23818 4.482288,1.51641 8.809891,1.51641 3.851171,0 7.291392,-1.24423 3.479925,-1.24424 5.736798,-3.46053 2.256873,-2.2163 2.85087,-5.01583 0.626996,-2.95506 -1.291625,-5.32688 -0.888928,-1.04983 -2.485806,-1.94412 -1.557174,-0.89429 -4.178072,-1.82747 -2.581196,-0.93318 -7.192389,-2.2163 l -3.747529,-1.04983 q -8.770705,-2.44958 -12.055207,-3.81047 -3.704733,-1.43864 -5.702247,-2.87729 -1.957808,-1.43865 -3.155077,-3.65495 -1.801577,-3.11058 -1.009581,-6.84329 0.956995,-4.51035 4.455484,-8.08754 3.506737,-3.616049 8.858881,-5.637932 5.352143,-2.021883 11.347263,-2.021883 9.052235,0 17.731672,4.938061 3.059692,1.671944 4.290478,1.671944 3.096818,0 5.395458,-4.471475 z"
             style="font-style:normal;font-variant:normal;font-weight:normal;font-stretch:normal;font-family:'Engravers MT';-inkscape-font-specification:'Engravers MT';fill:#d7f4d7;fill-opacity:1;stroke-width:0.30175"
             id="path943" />
        </g>
      </g>
    </g>
    <text
       xml:space="preserve"
       style="font-size:25.4px;line-height:1.25;font-family:sans-serif;stroke-width:0.264583"
       x="43.468922"
       y="221.51297"
       id="text1001"><tspan
         sodipodi:role="line"
         x="43.468922"
         y="221.51297"
         style="font-style:normal;font-variant:normal;font-weight:normal;font-stretch:normal;font-size:25.4px;font-family:'Lucida Fax';-inkscape-font-specification:'Lucida Fax';fill:#002b00;stroke-width:0.264583"
         id="tspan1003">Lembra Saude</tspan></text>
    <text
       xml:space="preserve"
       style="font-size:10.5833px;line-height:1.25;font-family:sans-serif;stroke-width:0.264583"
       x="71.235893"
       y="241.71855"
       id="text1009"><tspan
         sodipodi:role="line"
         id="tspan1007"
         x="71.235893"
         y="241.71855"
         style="stroke-width:0.264583">A sua agenda de saude</tspan></text>
    <rect
       style="fill:#002b00;stroke-width:7.937;stroke-linecap:round;stroke-linejoin:round;paint-order:stroke markers fill;stop-color:#000000"
       id="rect1011"
       width="188.2112"
       height="3.7417734"
       x="38.914444"
       y="224.88058" />
  </g>
</svg>
